<?xml version="1.0" standalone="no"?>
<!DOCTYPE svg PUBLIC "-//W3C//DTD SVG 20010904//EN"
 "http://www.w3.org/TR/2001/REC-SVG-20010904/DTD/svg10.dtd">
<svg version="1.0" xmlns="http://www.w3.org/2000/svg"
 width="1500.000000pt" height="1500.000000pt" viewBox="0 0 1500.000000 1500.000000"
 preserveAspectRatio="xMidYMid meet">

<g transform="translate(0.000000,1500.000000) scale(0.100000,-0.100000)"
fill="#000000" stroke="none">
<path d="M0 7500 l0 -7500 7500 0 7500 0 0 7500 0 7500 -7500 0 -7500 0 0
-7500z m7190 2785 c16 -8 33 -9 47 -4 13 4 25 4 28 -1 7 -12 65 -40 82 -40 7
0 30 -16 52 -35 21 -19 44 -35 50 -35 8 0 10 -8 6 -20 -5 -17 -2 -20 24 -20
16 0 33 5 36 10 8 13 48 13 61 1 9 -9 49 -4 167 19 73 15 120 13 114 -4 -4
-10 4 -17 26 -22 17 -3 36 -13 42 -20 5 -8 32 -16 59 -18 27 -3 52 -10 56 -17
4 -6 16 -8 28 -5 12 4 30 2 41 -3 12 -7 22 -7 26 -1 8 13 35 1 35 -16 0 -19
29 -18 36 1 7 18 48 21 42 3 -5 -14 123 -51 146 -42 7 3 20 -2 29 -10 9 -9 29
-16 45 -16 17 0 32 -6 35 -14 3 -7 26 -17 51 -20 25 -4 47 -13 47 -19 1 -7 2
-21 3 -32 1 -16 8 -20 36 -21 79 -1 174 -39 183 -73 4 -18 11 -20 54 -14 32 3
58 1 73 -7 22 -12 22 -14 7 -25 -15 -11 -15 -14 -3 -24 8 -7 27 -11 42 -9 30
3 40 -9 49 -64 4 -25 11 -38 22 -38 11 0 14 -7 10 -26 -3 -19 -1 -24 10 -19
10 3 13 1 10 -9 -3 -8 -1 -16 5 -18 6 -2 11 -25 11 -50 0 -29 4 -45 11 -42 6
2 12 -6 13 -18 8 -75 18 -115 35 -138 10 -15 20 -43 21 -63 1 -20 8 -39 15
-42 16 -6 15 -30 -4 -66 -12 -23 -13 -34 -4 -44 7 -8 9 -19 6 -24 -4 -5 -2
-13 4 -16 6 -4 8 -15 5 -26 -5 -15 -1 -19 14 -19 12 0 21 -4 21 -10 0 -5 -6
-10 -12 -10 -9 0 -9 -3 1 -9 8 -5 12 -19 9 -34 -4 -21 0 -27 19 -31 16 -5 23
-14 23 -29 0 -13 10 -33 23 -45 34 -32 47 -50 47 -65 0 -8 7 -20 15 -27 20
-16 19 -28 -2 -33 -13 -3 -8 -9 20 -21 37 -16 42 -35 9 -37 -9 -1 -3 -4 13 -8
22 -4 31 -13 33 -31 2 -14 8 -30 12 -35 19 -23 40 -229 40 -386 0 -90 4 -190
10 -222 23 -144 31 -432 17 -626 -7 -84 -6 -111 2 -106 15 9 7 -28 -30 -130
-15 -44 -35 -109 -43 -145 -9 -36 -30 -111 -47 -165 -17 -55 -35 -115 -40
-132 -5 -18 -13 -48 -18 -65 -29 -105 -85 -320 -111 -428 -39 -162 -55 -208
-102 -305 -63 -128 -94 -232 -138 -459 -12 -60 -28 -130 -36 -155 -8 -25 -14
-68 -14 -94 0 -46 3 -52 63 -115 77 -81 90 -100 157 -227 81 -153 154 -257
239 -338 92 -88 104 -92 321 -107 164 -12 289 -36 355 -68 63 -31 118 -47 295
-87 91 -21 201 -51 245 -67 112 -41 167 -53 350 -78 88 -12 185 -28 215 -35
30 -7 72 -16 92 -19 24 -4 39 -13 43 -26 8 -24 55 -40 123 -40 95 0 129 -16
223 -110 47 -47 107 -97 132 -112 l47 -27 -2 -1318 -3 -1318 -4347 -2 -4348
-2 0 1283 0 1283 39 7 c22 3 61 15 88 27 53 23 134 43 263 64 117 19 477 48
512 41 46 -9 262 81 325 137 60 52 116 86 153 93 22 4 54 25 87 55 28 27 57
49 64 49 7 0 48 14 91 31 54 22 87 42 106 65 15 19 39 49 55 68 15 19 34 51
43 71 8 21 31 54 51 74 19 20 48 65 65 101 53 117 62 132 91 153 59 44 186
176 220 229 35 55 79 90 129 102 25 6 26 5 21 -33 -3 -23 -1 -41 6 -45 6 -4
11 -18 11 -32 0 -13 5 -24 10 -24 6 0 10 -13 10 -28 0 -15 6 -34 13 -41 10
-10 8 -15 -7 -26 -16 -12 -17 -19 -7 -62 11 -49 8 -263 -4 -283 -4 -6 -2 -16
3 -23 9 -10 9 -174 2 -797 0 -23 34 -123 50 -145 4 -5 11 -26 14 -45 4 -19 11
-45 17 -57 22 -55 28 -71 39 -116 7 -26 17 -50 21 -53 5 -3 9 -15 9 -28 0 -12
4 -26 8 -32 5 -5 14 -29 21 -53 25 -88 71 -124 71 -57 0 19 3 41 6 50 4 11 1
16 -10 16 -9 0 -16 5 -16 10 0 6 6 10 14 10 21 0 40 28 29 43 -19 23 -22 73
-8 101 11 20 12 39 5 74 -4 26 -6 50 -4 54 8 13 9 197 1 204 -4 4 -7 19 -7 34
0 15 -3 30 -7 33 -4 4 -8 26 -11 49 -2 24 -8 46 -14 49 -6 4 -11 42 -11 93 0
51 -4 86 -9 86 -7 0 -7 4 -1 13 6 6 13 24 17 39 5 21 2 30 -13 37 -12 7 -17
18 -14 30 3 10 0 29 -7 41 -9 16 -9 25 1 36 8 10 8 18 1 27 -6 6 -12 45 -14
84 -2 49 -7 74 -16 78 -10 4 -12 16 -8 43 12 74 6 153 -13 176 -10 11 -9 19 1
36 12 19 10 24 -15 46 -16 14 -27 31 -24 39 3 7 -1 19 -9 25 -17 15 -18 37 -2
42 8 3 9 11 3 24 -5 10 -9 26 -10 35 -6 53 -17 88 -30 93 -24 9 -18 51 8 63
24 11 47 -2 40 -23 -2 -7 3 -14 12 -17 8 -4 15 -2 15 3 0 6 4 10 10 10 5 0 7
-6 4 -14 -3 -9 3 -17 15 -21 12 -3 21 -11 21 -16 0 -6 20 -19 45 -30 25 -11
45 -25 45 -31 0 -6 16 -25 35 -44 19 -18 35 -37 35 -43 0 -6 25 -35 55 -65 30
-29 55 -58 55 -64 0 -6 17 -23 38 -39 22 -15 37 -33 35 -40 -3 -7 9 -13 29
-15 24 -2 32 -7 30 -19 -1 -11 10 -21 30 -29 18 -7 50 -31 71 -52 21 -21 43
-38 50 -38 7 0 22 -16 34 -35 13 -19 34 -37 48 -41 15 -4 28 -16 31 -29 4 -16
11 -21 25 -18 10 3 19 9 19 14 0 5 8 9 18 8 10 0 12 -3 5 -6 -20 -7 -15 -51 6
-64 11 -7 16 -19 13 -31 -2 -10 1 -18 7 -18 7 0 9 5 6 10 -3 6 -2 10 3 10 6 0
12 -7 16 -15 3 -8 16 -15 29 -15 14 0 30 -7 37 -15 7 -9 21 -13 34 -9 15 3 24
-1 31 -18 7 -17 18 -23 40 -23 17 0 49 -6 73 -13 24 -7 67 -15 95 -17 47 -3
97 -15 137 -35 9 -4 25 3 43 22 16 15 37 28 47 28 11 0 24 9 30 20 6 12 21 20
36 20 21 0 109 33 124 47 2 2 -2 8 -10 14 -13 8 -11 13 9 29 34 29 48 25 44
-13 -2 -17 0 -26 3 -19 3 7 17 17 31 23 13 5 21 13 18 19 -4 6 6 10 22 10 16
0 38 6 48 14 17 12 21 12 34 -6 10 -15 15 -17 22 -7 4 7 2 21 -6 33 -12 17
-12 21 3 32 16 12 16 13 -2 20 -11 4 -21 2 -26 -6 -4 -6 -24 -12 -45 -12 -31
0 -36 -3 -32 -19 4 -16 0 -19 -30 -19 -19 0 -42 4 -51 9 -9 5 -36 12 -59 16
-39 6 -41 5 -36 -14 8 -30 -7 -26 -38 12 -25 30 -29 31 -58 20 -19 -7 -33 -8
-37 -2 -4 6 -11 6 -19 -1 -17 -14 -38 -3 -32 14 4 9 -2 11 -18 8 -13 -2 -39 4
-60 13 -25 13 -39 15 -47 7 -14 -14 -58 6 -58 25 0 11 -8 13 -27 9 -16 -3 -44
-2 -63 2 -27 7 -35 13 -33 28 2 17 -3 20 -27 16 -16 -2 -38 3 -52 12 -12 9
-30 16 -38 16 -9 0 -33 16 -53 35 -20 19 -43 35 -51 35 -9 0 -12 7 -9 21 5 18
3 20 -16 14 -17 -5 -28 -1 -42 14 -12 13 -32 21 -51 21 -30 0 -31 1 -12 14 18
14 18 15 1 21 -9 4 -24 2 -32 -5 -12 -10 -20 -7 -44 12 -17 12 -30 28 -30 34
-1 13 -24 24 -51 24 -10 0 -20 7 -24 15 -3 8 -14 15 -24 15 -24 0 -44 23 -46
52 0 11 -8 24 -16 28 -8 4 -30 14 -48 23 -19 9 -40 17 -47 17 -8 0 -16 9 -20
19 -3 11 -19 25 -35 32 -18 9 -30 23 -34 41 -4 19 -12 28 -25 28 -10 0 -24 7
-31 15 -7 8 -17 15 -22 15 -6 0 -24 11 -40 25 -29 24 -31 25 -43 8 -10 -14
-16 -15 -25 -6 -9 8 -7 14 10 23 25 13 22 33 -6 35 -10 1 -26 4 -34 6 -11 3
-14 -4 -12 -28 2 -18 -1 -33 -7 -33 -6 0 -8 7 -5 15 7 17 -58 120 -81 129 -8
3 -15 13 -15 23 -1 17 -1 17 -11 1 -8 -15 -13 -15 -23 -5 -10 9 -11 15 -3 25
9 11 5 13 -18 11 -39 -4 -55 7 -55 36 0 13 -5 27 -11 31 -7 4 -9 24 -5 55 5
39 3 52 -12 67 -10 10 -24 32 -31 49 -7 16 -24 36 -39 44 -33 16 -72 49 -72
62 0 4 -13 22 -30 39 -16 16 -30 36 -30 43 0 8 -9 17 -20 20 -11 3 -20 12 -20
19 0 7 -13 25 -30 41 -16 16 -30 35 -30 42 0 7 -20 59 -45 115 -25 56 -45 115
-45 130 0 27 -7 57 -59 241 -5 17 -19 64 -31 102 -24 79 -44 159 -95 387 -19
86 -39 168 -45 183 -5 14 -10 43 -10 64 0 21 -7 58 -15 82 -31 86 -32 289 -2
289 11 -1 83 -104 99 -142 17 -41 26 -11 32 105 12 252 17 373 16 415 0 23 3
42 8 42 16 0 22 41 9 61 -8 14 -9 21 0 30 7 7 8 21 3 41 -7 22 -5 30 5 35 8 3
12 9 9 14 -3 6 0 17 8 26 10 12 10 17 1 20 -14 5 23 72 45 80 12 5 12 7 -2 15
-23 13 -20 44 6 62 l22 16 -22 0 c-24 0 -30 15 -9 23 9 4 8 8 -3 16 -12 8 -10
15 15 39 39 38 72 55 80 42 8 -13 55 -13 55 0 0 21 31 9 43 -17 6 -16 16 -31
22 -35 6 -5 5 -8 -2 -8 -7 0 -13 -4 -13 -10 0 -23 28 4 32 31 3 21 0 30 -14
35 -10 3 -16 9 -13 14 7 11 104 9 111 -2 9 -14 37 -9 31 6 -6 16 15 82 31 98
9 9 12 9 12 0 0 -7 -4 -12 -10 -12 -13 0 -13 -21 0 -55 l10 -27 19 24 c12 14
16 27 10 32 -16 17 -10 35 14 38 12 2 22 8 22 13 0 6 -10 11 -22 13 -13 2 -23
10 -23 18 0 8 10 15 23 16 52 4 64 6 95 19 17 7 32 19 32 26 0 23 53 42 158
58 13 2 30 9 39 17 13 10 17 10 20 1 6 -16 37 -17 65 -2 16 8 22 8 29 -2 6
-11 13 -8 32 10 14 12 27 19 30 14 6 -10 158 -10 174 0 6 4 16 0 23 -8 8 -9
30 -15 56 -15 32 0 50 -6 70 -25 17 -16 34 -23 45 -20 11 4 25 -2 36 -14 10
-12 24 -21 33 -21 24 0 109 -82 115 -110 7 -36 -8 -58 -29 -41 -22 19 -50 6
-43 -20 5 -19 2 -21 -29 -17 -22 3 -34 0 -34 -8 0 -16 -39 -25 -61 -14 -10 6
-25 7 -33 4 -9 -4 -23 -1 -30 6 -8 6 -36 13 -63 15 -46 4 -90 10 -160 21 -22
3 -33 11 -33 22 -1 24 -29 59 -38 47 -4 -6 -35 -10 -70 -11 -77 -1 -166 -29
-209 -66 -19 -15 -40 -25 -48 -22 -8 4 -15 2 -15 -4 0 -5 -16 -24 -35 -43 -19
-19 -35 -40 -35 -47 0 -16 -58 -76 -79 -83 -9 -3 -12 -12 -8 -22 9 -23 5 -33
-10 -29 -8 2 -13 -8 -13 -26 0 -15 -4 -32 -10 -38 -6 -6 -5 -24 2 -51 8 -34
14 -42 31 -40 14 1 22 -5 27 -22 6 -26 30 -41 30 -19 0 9 3 9 8 2 11 -17 66
-32 94 -27 19 4 26 0 30 -15 5 -19 8 -20 48 -6 39 13 44 13 61 -2 17 -16 19
-16 25 0 4 10 17 22 30 27 30 11 31 33 3 53 -17 12 -20 21 -16 45 4 17 3 33
-2 36 -19 11 -22 75 -5 103 23 37 97 102 122 107 11 2 29 9 40 16 31 20 35 7
12 -44 -27 -62 -27 -102 0 -164 53 -124 221 -164 313 -75 58 56 80 113 73 190
-4 34 -5 62 -2 62 15 0 78 -33 93 -49 10 -10 45 -37 77 -60 33 -22 67 -54 77
-71 27 -44 81 -40 69 5 -2 6 -4 38 -5 73 -1 42 1 61 9 59 6 -2 10 -19 9 -38
-2 -28 -1 -31 8 -16 8 14 14 16 24 7 8 -7 19 -9 25 -5 17 10 12 39 -11 58 -13
12 -18 24 -14 37 3 11 2 27 -3 37 -11 18 1 63 20 74 5 4 23 0 40 -8 26 -14 28
-16 12 -28 -16 -11 -16 -13 4 -31 12 -10 22 -28 22 -41 0 -12 7 -26 15 -31 10
-5 16 -25 18 -55 1 -26 7 -49 15 -51 6 -3 12 -21 12 -41 0 -37 18 -47 39 -21
10 11 8 16 -5 24 -11 6 -15 16 -10 27 6 16 8 17 24 1 24 -21 39 -20 45 3 6 25
0 31 -30 31 -15 0 -22 4 -18 11 4 6 14 8 22 4 9 -3 24 -3 35 1 18 5 18 7 2 18
-12 9 -15 19 -10 32 13 32 11 121 -3 138 -7 8 -10 19 -7 25 3 5 0 11 -8 14 -9
4 -12 19 -10 45 2 28 -6 57 -27 98 -16 33 -27 65 -24 72 2 7 -13 30 -35 52
-32 32 -40 48 -40 75 0 29 -10 45 -52 90 -29 30 -58 55 -65 55 -8 0 -16 7 -19
15 -4 8 -12 15 -19 15 -8 0 -21 8 -31 17 -9 10 -22 18 -28 18 -12 0 -111 29
-161 46 -16 6 -41 13 -55 16 -14 3 -36 14 -50 23 -29 20 -156 51 -177 43 -8
-3 -28 4 -44 16 -23 17 -38 21 -61 16 -27 -6 -35 -2 -80 46 -44 47 -50 50 -54
32 -7 -26 -81 -37 -93 -14 -5 9 -26 14 -57 15 l-49 1 -1 38 c0 37 -27 78 -41
63 -4 -4 -1 -11 6 -16 18 -11 16 -69 -2 -87 -13 -13 -15 -10 -22 24 -6 33 -8
36 -20 20 -18 -25 -33 -21 -27 9 2 14 -1 36 -8 49 -11 20 -11 27 0 40 18 22
39 19 33 -5 -4 -15 0 -20 15 -20 11 0 22 7 26 15 3 8 17 15 31 15 32 0 68 18
60 30 -3 4 -14 6 -25 3 -28 -7 -51 4 -44 21 5 12 11 13 24 6 33 -18 52 -13 45
11 -5 14 -2 25 6 30 11 7 11 9 -2 9 -23 0 -33 29 -13 37 8 3 13 11 11 17 -3 7
1 27 9 44 11 28 17 32 39 26 23 -6 26 -4 22 17 -2 13 -2 18 0 12 6 -17 9 -16
33 4 11 10 20 25 20 35 0 13 8 18 26 18 19 0 28 7 37 30 6 17 14 30 18 30 4 0
12 14 19 30 8 18 20 30 31 30 20 0 26 16 8 22 -18 6 12 58 34 58 13 0 17 5 13
15 -3 8 6 27 19 41 14 15 25 33 25 40 0 8 7 14 15 14 8 0 15 5 15 10 0 6 15
10 34 10 19 0 42 7 51 16 16 16 25 15 57 -8 14 -10 20 -10 30 0 9 9 7 12 -10
12 -13 0 -22 6 -22 15 0 11 12 15 50 15 47 0 50 1 50 26 0 24 2 25 28 18 39
-11 94 -7 104 8 4 7 6 21 4 30 -2 10 6 24 20 33 31 20 30 33 -6 83 -34 48 -36
52 -15 52 8 0 15 -6 15 -13 0 -8 11 -20 25 -27 20 -11 27 -11 40 0 9 8 14 22
11 32 -3 14 3 22 20 28 13 5 24 16 24 25 0 14 33 21 83 15 10 -1 24 6 31 16
13 17 15 17 49 1 43 -21 47 -21 47 -1 0 13 7 15 35 11 19 -3 37 -1 41 4 10 17
48 27 61 17 9 -7 20 -6 35 5 25 17 74 14 118 -8z m-720 -150 c0 -8 -2 -15 -4
-15 -2 0 -6 7 -10 15 -3 8 -1 15 4 15 6 0 10 -7 10 -15z m-65 -145 c3 -5 -1
-10 -9 -10 -9 0 -16 5 -16 10 0 6 4 10 9 10 6 0 13 -4 16 -10z m-438 -382 c-3
-8 -6 -5 -6 6 -1 11 2 17 5 13 3 -3 4 -12 1 -19z m-337 -343 c11 -13 8 -15
-14 -15 -16 0 -26 5 -26 15 0 8 6 15 14 15 7 0 19 -7 26 -15z m-10 -109 c0 -2
-7 -9 -15 -16 -12 -10 -15 -10 -15 4 0 9 7 16 15 16 8 0 15 -2 15 -4z m-70
-86 c0 -5 -4 -10 -10 -10 -5 0 -10 5 -10 10 0 6 5 10 10 10 6 0 10 -4 10 -10z
m-350 -739 c0 -13 -9 -20 -28 -23 -25 -4 -28 -1 -24 18 7 36 52 40 52 5z
m1550 -46 c0 -3 -8 -15 -19 -26 -18 -20 -18 -20 -23 5 -4 22 -2 26 18 26 13 0
24 -2 24 -5z m-309 -49 c-7 -8 -21 -12 -34 -8 -22 6 -22 6 3 13 39 11 43 10
31 -5z m269 -81 c0 -8 -4 -15 -10 -15 -5 0 -10 7 -10 15 0 8 5 15 10 15 6 0
10 -7 10 -15z m-508 -20 c0 -5 -5 -11 -11 -13 -6 -2 -11 4 -11 13 0 9 5 15 11
13 6 -2 11 -8 11 -13z m121 -42 c-7 -2 -19 -2 -25 0 -7 3 -2 5 12 5 14 0 19
-2 13 -5z m-118 -32 c3 -5 1 -12 -5 -16 -5 -3 -10 1 -10 9 0 18 6 21 15 7z
m-575 -2967 c0 -2 -9 -4 -20 -4 -11 0 -20 4 -20 9 0 5 9 7 20 4 11 -3 20 -7
20 -9z m9 -49 c3 -17 2 -17 -13 -3 -19 20 -21 31 -3 26 6 -3 14 -13 16 -23z
m1531 -795 c0 -5 -4 -10 -10 -10 -5 0 -10 5 -10 10 0 6 5 10 10 10 6 0 10 -4
10 -10z"/>
<path d="M6710 10086 c0 -9 7 -16 16 -16 9 0 14 5 12 12 -6 18 -28 21 -28 4z"/>
<path d="M5884 9399 c-13 -15 -15 -22 -6 -31 9 -9 12 -8 12 6 0 13 5 17 20 13
12 -3 20 0 20 8 0 22 -27 25 -46 4z"/>
<path d="M8917 8963 c-15 -3 -32 -13 -38 -24 -6 -11 -15 -19 -22 -16 -6 2 -19
-5 -29 -15 -21 -21 -66 -18 -131 9 -34 15 -38 15 -56 -2 -16 -13 -43 -18 -127
-22 -64 -2 -121 -10 -143 -19 -20 -9 -95 -31 -166 -49 -186 -46 -265 -92 -333
-191 -27 -40 -33 -112 -9 -125 11 -7 17 -22 17 -47 l-1 -37 -17 28 c-16 26
-38 32 -36 9 1 -7 2 -26 3 -43 1 -30 2 -31 41 -24 37 6 41 5 50 -20 11 -30 29
-25 31 8 1 12 6 -3 12 -33 9 -42 12 -49 15 -27 4 34 20 35 28 3 7 -30 -2 -47
-20 -40 -16 6 -41 -22 -27 -31 7 -4 7 -12 -1 -25 -9 -14 -9 -28 0 -58 10 -33
9 -48 -8 -98 -21 -64 -25 -104 -11 -104 5 0 7 9 4 20 -4 15 0 20 14 20 26 0
35 -10 22 -26 -14 -17 -3 -34 21 -34 10 0 22 -4 25 -10 12 -19 25 -10 25 18 0
16 -8 32 -19 39 -15 9 -17 19 -12 44 5 26 13 35 37 41 17 4 39 17 49 28 10 11
26 20 35 20 9 0 25 9 35 20 26 29 32 25 39 -26 13 -97 73 -170 167 -204 81
-29 211 53 238 152 10 36 11 58 2 99 -6 28 -9 54 -7 56 3 3 28 -4 56 -14 46
-18 130 -84 130 -103 0 -4 9 -10 20 -13 12 -3 20 -14 20 -26 0 -12 4 -21 10
-21 5 0 7 7 4 15 -4 8 -2 15 4 15 16 0 20 -22 10 -49 -11 -31 8 -80 31 -82 51
-4 118 5 138 20 28 20 29 45 3 78 -26 33 -42 95 -34 129 6 23 -1 34 -55 85
-57 54 -113 83 -135 71 -5 -3 3 -15 18 -27 16 -13 24 -25 19 -28 -10 -6 -78 9
-98 21 -5 4 -18 5 -27 4 -10 -2 -26 2 -37 7 -11 6 -85 11 -167 12 -88 0 -154
5 -161 11 -7 6 -13 7 -13 3 0 -5 -9 0 -19 9 -12 11 -21 14 -26 7 -7 -12 -36
-15 -34 -3 3 20 -2 44 -8 38 -5 -4 -9 -12 -9 -17 -1 -5 -2 -12 -3 -16 0 -4 -8
3 -17 15 -8 12 -24 22 -34 22 -21 0 -97 -37 -106 -51 -8 -13 -21 -11 -38 7
-21 21 -4 54 28 54 15 0 26 7 29 20 4 14 14 20 34 21 15 0 22 3 13 6 -14 6 6
18 139 83 43 21 72 29 89 25 13 -3 29 -2 35 3 20 15 89 28 137 25 94 -5 136
-11 163 -22 20 -8 34 -7 55 1 54 22 108 3 125 -45 3 -9 9 -9 26 1 12 7 31 10
42 7 10 -4 24 -3 31 2 16 10 78 11 78 0 0 -4 16 -15 36 -24 31 -15 36 -15 45
-3 8 12 12 12 16 2 2 -7 25 -26 49 -43 24 -16 44 -38 44 -48 0 -10 8 -25 19
-35 32 -29 43 0 37 93 -5 68 -4 81 9 81 9 0 20 12 25 26 14 35 12 47 -4 41 -8
-3 -17 1 -20 9 -11 28 -6 54 9 60 12 5 13 9 4 20 -9 11 -15 11 -25 3 -18 -15
-55 -2 -47 17 3 7 0 14 -7 14 -7 0 -21 11 -32 25 -11 14 -26 25 -33 25 -7 0
-29 18 -48 40 -19 22 -38 40 -44 40 -5 0 -18 9 -28 20 -11 12 -35 28 -54 37
-20 10 -38 20 -41 24 -8 10 -43 16 -73 12z m-977 -503 c0 -5 -4 -10 -10 -10
-5 0 -10 5 -10 10 0 6 5 10 10 10 6 0 10 -4 10 -10z m20 -30 c0 -5 -4 -10 -10
-10 -5 0 -10 5 -10 10 0 6 5 10 10 10 6 0 10 -4 10 -10z m55 -41 c10 -14 1
-21 -19 -13 -9 3 -13 10 -10 15 7 12 21 11 29 -2z m420 -199 c-3 -5 -10 -10
-16 -10 -5 0 -9 5 -9 10 0 6 7 10 16 10 8 0 12 -4 9 -10z m135 -34 c0 -11 -19
-15 -25 -6 -3 5 1 10 9 10 9 0 16 -2 16 -4z"/>
<path d="M8720 8370 c0 -5 9 -10 21 -10 11 0 17 5 14 10 -3 6 -13 10 -21 10
-8 0 -14 -4 -14 -10z"/>
<path d="M7848 8363 c12 -2 22 -9 22 -14 0 -5 10 -9 23 -9 21 1 22 1 3 15 -11
8 -31 14 -45 14 -24 -2 -24 -2 -3 -6z"/>
<path d="M7798 8323 c7 -3 16 -2 19 1 4 3 -2 6 -13 5 -11 0 -14 -3 -6 -6z"/>
<path d="M5320 8252 c0 -14 23 -32 42 -32 21 0 23 11 6 28 -13 13 -48 16 -48
4z"/>
<path d="M6903 7917 c4 -10 7 -23 7 -28 0 -5 5 -9 10 -9 16 0 12 26 -7 41 -15
12 -16 12 -10 -4z"/>
<path d="M6858 7883 c7 -3 16 -2 19 1 4 3 -2 6 -13 5 -11 0 -14 -3 -6 -6z"/>
<path d="M6963 7859 c9 -5 17 -15 17 -20 0 -6 8 -18 17 -27 16 -16 16 -15 10
8 -4 14 -7 31 -7 38 0 7 -12 12 -27 12 -24 -1 -25 -2 -10 -11z"/>
<path d="M5848 7803 c7 -3 16 -2 19 1 4 3 -2 6 -13 5 -11 0 -14 -3 -6 -6z"/>
<path d="M6005 7781 c-3 -5 -1 -12 5 -16 12 -7 30 2 30 16 0 12 -27 12 -35 0z"/>
<path d="M6098 7763 c7 -3 16 -2 19 1 4 3 -2 6 -13 5 -11 0 -14 -3 -6 -6z"/>
<path d="M4935 7030 c-9 -41 3 -110 20 -110 14 0 28 67 17 84 -3 6 -7 16 -8
21 0 6 -2 16 -2 23 -3 23 -20 12 -27 -18z"/>
<path d="M6777 7043 c-12 -12 -7 -40 9 -54 15 -12 16 -11 9 11 -5 14 -8 31 -8
38 0 14 -1 14 -10 5z"/>
<path d="M6771 6964 c0 -11 3 -14 6 -6 3 7 2 16 -1 19 -3 4 -6 -2 -5 -13z"/>
<path d="M6873 6647 c-18 -7 -55 -36 -83 -64 -27 -29 -55 -53 -62 -53 -7 0
-28 9 -46 20 -41 25 -42 25 -42 -3 0 -32 46 -84 85 -97 18 -6 93 -13 166 -15
74 -2 154 -9 179 -14 25 -6 78 -10 118 -11 102 0 104 14 14 100 -39 37 -99 86
-134 109 -53 35 -70 41 -113 40 -27 0 -65 -6 -82 -12z"/>
<path d="M7698 6634 c-21 -15 -38 -31 -38 -36 0 -16 44 -47 66 -48 12 0 25 -7
28 -16 9 -22 8 -24 -9 -24 -25 0 -18 -37 8 -42 35 -7 44 0 39 32 -3 21 0 30 9
30 15 -1 58 -30 44 -30 -5 0 -4 -5 1 -10 8 -8 19 -7 37 1 24 11 25 13 10 24
-12 9 -13 14 -4 19 9 6 9 11 -1 24 -10 12 -10 16 -1 19 8 3 9 8 3 16 -6 7 -18
22 -28 35 -13 17 -30 24 -72 28 -49 5 -59 2 -92 -22z"/>
<path d="M7687 6522 c-11 -12 -13 -22 -6 -35 6 -9 13 -17 17 -17 7 0 32 48 32
62 0 14 -27 8 -43 -10z"/>
<path d="M7290 6430 c0 -5 7 -10 15 -10 8 0 15 5 15 10 0 6 -7 10 -15 10 -8 0
-15 -4 -15 -10z"/>
<path d="M6326 6025 c-21 -7 -54 -28 -72 -46 -39 -38 -64 -107 -43 -120 7 -4
14 -15 15 -24 3 -22 26 -48 33 -37 3 4 20 14 37 21 38 15 154 7 169 -11 6 -7
28 -14 50 -16 22 -1 59 -12 82 -23 24 -12 59 -21 78 -22 19 -1 35 -4 35 -9 0
-4 16 -10 37 -14 28 -5 39 -3 48 10 7 9 19 16 28 16 14 0 14 3 1 28 -19 37
-18 41 11 52 14 5 25 17 25 26 0 12 5 14 18 8 9 -4 80 -9 157 -11 138 -2 229
-12 252 -26 13 -8 191 9 238 23 17 5 71 12 120 15 50 3 111 8 136 11 29 3 49
1 54 -5 10 -17 28 -13 21 5 -6 14 -1 16 31 9 21 -5 74 -9 118 -9 44 -1 85 -4
92 -9 19 -12 81 0 110 22 21 17 39 21 85 20 35 -1 63 -7 69 -15 18 -22 39 -16
39 10 0 14 5 28 10 31 18 11 11 44 -12 56 -13 7 -26 17 -31 23 -5 7 -15 2 -30
-16 -26 -32 -45 -35 -62 -11 -11 15 -16 16 -37 4 -14 -7 -51 -14 -84 -17 -78
-5 -70 -5 -144 4 -36 5 -99 5 -140 1 -41 -4 -126 -10 -188 -13 -62 -3 -116 -7
-120 -10 -4 -2 -34 -5 -67 -7 -33 -2 -65 -7 -72 -12 -6 -4 -14 -3 -18 3 -5 8
-11 6 -19 -6 -9 -12 -20 -15 -44 -9 -18 3 -32 10 -32 14 0 14 -82 31 -180 37
-52 3 -111 7 -130 10 -19 3 -69 4 -110 3 -163 -5 -397 -2 -435 6 -22 4 -48 16
-58 26 -21 22 -21 22 -71 4z"/>
<path d="M8060 5849 c0 -5 5 -7 10 -4 6 3 10 8 10 11 0 2 -4 4 -10 4 -5 0 -10
-5 -10 -11z"/>
<path d="M7700 5270 c0 -5 7 -10 15 -10 8 0 15 5 15 10 0 6 -7 10 -15 10 -8 0
-15 -4 -15 -10z"/>
<path d="M8791 5173 c-16 -73 -23 -132 -27 -203 -1 -36 -7 -90 -13 -120 -35
-182 -42 -214 -53 -228 -9 -10 -10 -16 -2 -19 7 -2 8 -23 2 -66 -5 -34 -7 -71
-4 -82 3 -11 -1 -31 -8 -44 -9 -15 -11 -36 -6 -57 4 -18 3 -37 -1 -41 -6 -6
-5 -30 1 -60 6 -28 9 -77 7 -109 -4 -50 -2 -63 16 -81 17 -19 19 -27 9 -48
-11 -23 -9 -27 11 -35 12 -5 16 -9 10 -9 -17 -1 -16 -46 1 -60 21 -18 27 -80
10 -106 -14 -21 -14 -24 0 -32 11 -6 18 -31 22 -78 3 -39 9 -74 12 -79 9 -16
3 -169 -9 -198 -9 -21 -8 -31 4 -49 15 -21 16 -21 22 14 4 19 4 50 0 67 -4 19
-3 35 3 39 5 3 13 71 16 151 4 80 12 228 18 330 6 102 12 271 13 375 3 253 5
434 4 465 0 14 0 44 1 68 0 23 -4 59 -9 80 -15 58 -16 95 -2 120 10 19 8 32
-10 82 -12 33 -23 60 -24 60 -2 0 -8 -21 -14 -47z"/>
<path d="M6930 5180 c0 -5 7 -10 16 -10 8 0 12 5 9 10 -3 6 -10 10 -16 10 -5
0 -9 -4 -9 -10z"/>
<path d="M7036 5105 c4 -8 12 -15 20 -15 8 0 14 7 14 15 0 8 -9 15 -20 15 -13
0 -18 -5 -14 -15z"/>
<path d="M7000 4986 c0 -2 7 -6 15 -10 8 -3 15 -1 15 4 0 6 -7 10 -15 10 -8 0
-15 -2 -15 -4z"/>
<path d="M7065 4951 c-20 -8 -20 -8 1 -15 25 -8 56 2 48 15 -6 11 -21 11 -49
0z"/>
<path d="M6831 4874 c0 -11 3 -14 6 -6 3 7 2 16 -1 19 -3 4 -6 -2 -5 -13z"/>
<path d="M6890 4830 c0 -9 5 -21 10 -26 6 -6 12 -32 13 -57 2 -27 11 -54 21
-65 17 -20 110 -72 128 -72 5 0 30 -16 56 -36 26 -19 48 -31 50 -25 7 21 18
11 17 -14 -1 -14 -8 -31 -17 -38 -8 -6 -21 -27 -28 -46 l-14 -34 -12 39 c-11
34 -13 36 -19 17 -5 -16 -17 -22 -48 -25 -23 -3 -46 -2 -52 0 -20 12 -54 10
-66 -4 -9 -11 -9 -14 0 -14 7 0 11 -6 10 -12 -1 -7 3 -25 9 -40 14 -34 57 -47
147 -45 72 2 99 16 88 45 -4 10 2 13 23 10 33 -3 36 -21 4 -26 -14 -2 -20 -11
-20 -28 0 -19 4 -24 18 -20 9 2 32 7 50 11 34 7 42 28 15 43 -26 15 -8 42 27
42 17 0 30 -5 30 -12 0 -10 3 -9 9 1 6 10 13 11 29 2 33 -18 52 -13 52 12 0
13 -5 28 -12 35 -8 8 -5 16 13 31 13 11 28 20 32 21 18 0 2 55 -17 58 -13 3
-17 0 -13 -10 3 -8 1 -21 -4 -29 -7 -12 -9 -11 -9 2 0 27 -46 45 -81 32 -34
-13 -59 -8 -59 13 0 8 -5 14 -11 14 -15 0 -48 42 -49 61 0 24 -29 44 -56 41
-13 -2 -24 1 -24 7 0 6 5 11 11 11 6 0 9 12 7 27 -4 39 -58 52 -95 23 -14 -11
-31 -20 -39 -20 -7 0 -14 -5 -16 -10 -2 -7 -13 -6 -30 2 -34 16 -35 24 -3 32
26 7 35 26 11 26 -7 0 -16 12 -19 27 l-5 28 18 -23 c12 -14 21 -19 25 -11 4 6
-2 19 -14 30 -25 24 -91 23 -91 -1z m486 -307 c-10 -10 -19 5 -10 18 6 11 8
11 12 0 2 -7 1 -15 -2 -18z m-176 -104 c0 -5 -4 -9 -10 -9 -5 0 -10 7 -10 16
0 8 5 12 10 9 6 -3 10 -10 10 -16z"/>
<path d="M7457 4814 c-3 -3 -1 -16 5 -29 11 -24 38 -24 38 1 0 15 -34 37 -43
28z"/>
<path d="M7623 4667 c-13 -5 -23 -14 -23 -19 0 -12 48 -10 56 3 11 18 -9 28
-33 16z"/>
<path d="M7477 4626 c-14 -11 -15 -15 -4 -19 20 -7 44 10 32 22 -7 6 -16 5
-28 -3z"/>
<path d="M7609 4608 c-10 -18 -9 -20 6 -15 9 4 21 7 26 7 5 0 9 7 9 15 0 22
-28 18 -41 -7z"/>
<path d="M7446 4587 c3 -10 9 -15 12 -12 3 3 0 11 -7 18 -10 9 -11 8 -5 -6z"/>
<path d="M7107 4519 c6 -22 23 -26 23 -5 0 8 -6 16 -14 19 -10 4 -12 0 -9 -14z"/>
<path d="M8100 4529 c0 -5 5 -7 10 -4 6 3 10 8 10 11 0 2 -4 4 -10 4 -5 0 -10
-5 -10 -11z"/>
<path d="M7927 4404 c-3 -3 -3 -12 0 -19 6 -17 33 -8 33 11 0 14 -21 19 -33 8z"/>
<path d="M7854 4382 c-12 -2 -30 -12 -40 -23 -9 -10 -28 -19 -42 -19 -19 0
-23 -4 -19 -19 7 -27 -17 -34 -51 -14 -37 21 -61 11 -69 -28 -3 -19 -15 -35
-29 -41 -13 -6 -25 -21 -25 -32 -1 -12 -2 -32 -3 -46 -1 -31 24 -37 69 -16 18
9 40 16 49 16 25 0 66 22 66 36 0 6 7 14 15 18 8 3 15 17 15 32 0 17 6 28 20
31 11 3 20 10 20 17 0 6 14 22 30 36 43 35 40 60 -6 52z m-44 -84 c0 -3 -9 -4
-20 -1 -16 4 -18 8 -9 20 10 11 14 11 20 1 5 -7 9 -16 9 -20z"/>
<path d="M7314 4363 c-8 -8 -12 -18 -9 -22 5 -9 75 10 75 20 0 14 -52 16 -66
2z"/>
<path d="M7420 4344 c0 -9 7 -14 17 -12 25 5 28 28 4 28 -12 0 -21 -6 -21 -16z"/>
<path d="M7641 4084 c0 -11 3 -14 6 -6 3 7 2 16 -1 19 -3 4 -6 -2 -5 -13z"/>
<path d="M6650 4075 c0 -8 5 -15 10 -15 6 0 10 7 10 15 0 8 -4 15 -10 15 -5 0
-10 -7 -10 -15z"/>
<path d="M8328 2563 c7 -3 16 -2 19 1 4 3 -2 6 -13 5 -11 0 -14 -3 -6 -6z"/>
<path d="M8323 2512 c-7 -4 -9 -13 -4 -21 6 -10 10 -9 15 5 8 20 4 25 -11 16z"/>
<path d="M5514 2163 c-4 -16 -17 -49 -30 -75 -13 -26 -24 -55 -24 -65 -1 -60
-68 -273 -87 -273 -12 0 -30 -51 -35 -105 -3 -28 -1 -30 37 -33 22 -2 45 -8
52 -14 9 -7 15 -3 24 18 6 16 22 52 35 79 13 28 24 60 24 72 0 12 5 25 11 28
6 4 8 13 5 21 -3 8 1 17 9 20 15 6 41 85 48 149 2 23 12 53 21 67 25 38 13
100 -24 121 -40 24 -59 21 -66 -10z m42 -107 c3 -13 0 -35 -7 -48 l-12 -23 -9
30 c-8 32 -2 65 12 65 6 0 12 -11 16 -24z m-56 -175 c0 -6 -4 -13 -10 -16 -5
-3 -10 1 -10 9 0 9 5 16 10 16 6 0 10 -4 10 -9z m-29 -94 c-8 -8 -11 -5 -11 9
0 27 14 41 18 19 2 -9 -1 -22 -7 -28z"/>
<path d="M9490 2095 c0 -8 9 -15 20 -15 13 0 20 -7 20 -20 0 -27 16 -25 24 2
6 27 1 33 -36 42 -21 5 -28 3 -28 -9z"/>
<path d="M9739 2103 c-33 -5 -58 -47 -42 -71 5 -9 23 -19 39 -22 23 -4 26 -7
14 -15 -8 -5 -27 -8 -42 -7 -37 3 -36 -16 2 -29 17 -6 30 -17 30 -25 0 -8 5
-14 10 -14 6 0 10 5 10 11 0 5 8 9 18 8 9 -1 24 1 32 4 12 6 47 12 92 16 3 1
4 10 1 21 -3 13 0 20 8 20 10 1 9 4 -3 13 -9 7 -20 26 -24 41 -9 37 -78 60
-145 49z"/>
<path d="M9630 2062 c0 -10 -6 -24 -12 -30 -10 -10 -10 -15 2 -22 11 -7 16 -4
18 13 2 12 8 27 13 33 5 6 6 14 2 17 -12 13 -23 7 -23 -11z"/>
<path d="M9905 2070 c4 -6 11 -8 16 -5 5 4 9 -1 9 -9 0 -18 16 -21 26 -5 3 6
0 15 -7 20 -19 12 -52 11 -44 -1z"/>
<path d="M4843 2050 c-13 -5 -23 -14 -23 -20 0 -6 -8 -10 -17 -9 -22 3 -94
-11 -108 -21 -5 -3 -30 -12 -55 -20 -25 -7 -49 -17 -54 -22 -6 -4 -20 -8 -32
-8 -13 0 -26 -4 -29 -10 -3 -5 -15 -10 -26 -10 -10 0 -27 -4 -37 -9 -9 -5 -32
-16 -49 -23 -18 -7 -33 -19 -33 -26 0 -10 -8 -12 -30 -7 -19 4 -44 0 -74 -14
-43 -19 -44 -20 -33 -45 13 -28 27 -32 45 -14 8 8 15 9 20 3 4 -6 21 -15 38
-21 34 -12 55 -3 67 28 3 9 15 22 27 28 19 10 20 9 14 -16 -6 -25 -5 -25 16
-14 12 6 33 10 46 7 15 -3 24 0 24 8 0 30 137 60 157 35 11 -13 14 -13 22 0 6
8 13 12 16 8 4 -3 16 3 26 13 12 12 30 19 44 17 15 -2 30 4 38 17 10 13 27 19
54 20 55 1 118 52 109 88 -3 15 -15 27 -28 30 -53 13 -115 16 -135 7z"/>
<path d="M10040 2031 c32 -27 36 -28 51 -12 15 15 13 16 -15 19 -17 2 -35 8
-40 13 -6 5 -15 9 -20 9 -6 0 5 -13 24 -29z"/>
<path d="M10110 2004 c0 -9 10 -14 28 -14 41 0 54 -12 44 -40 -7 -19 -5 -28
12 -41 23 -19 53 -14 36 6 -7 8 -4 17 9 29 12 11 21 14 26 7 3 -6 13 -11 21
-11 18 0 12 43 -7 48 -8 2 -23 7 -34 12 -11 5 -46 11 -77 14 -46 4 -58 2 -58
-10z"/>
<path d="M10115 1970 c-3 -5 1 -10 10 -10 9 0 13 5 10 10 -3 6 -8 10 -10 10
-2 0 -7 -4 -10 -10z"/>
<path d="M10337 1943 c-13 -12 -7 -23 12 -23 11 0 21 -4 23 -9 2 -5 10 -2 18
7 13 14 12 15 -3 9 -11 -4 -20 -1 -23 8 -7 16 -17 19 -27 8z"/>
<path d="M10130 1906 c0 -2 7 -6 15 -10 8 -3 15 -1 15 4 0 6 -7 10 -15 10 -8
0 -15 -2 -15 -4z"/>
<path d="M10470 1901 c0 -5 7 -14 15 -21 8 -7 15 -18 15 -24 0 -6 9 -22 20
-36 18 -23 21 -23 30 -8 9 14 16 15 37 7 14 -5 33 -7 43 -4 9 3 23 -2 31 -11
13 -16 28 -23 78 -39 36 -11 16 12 -25 30 -19 8 -34 19 -34 24 0 6 -9 11 -21
11 -11 0 -33 8 -47 19 -35 24 -112 61 -129 61 -7 0 -13 -4 -13 -9z"/>
<path d="M8873 1840 c-42 -25 -46 -71 -9 -88 21 -9 29 -7 53 11 59 45 66 68
28 85 -34 15 -34 15 -72 -8z"/>
<path d="M4142 1813 c-15 -6 -6 -23 14 -23 8 0 14 7 14 15 0 15 -6 17 -28 8z"/>
<path d="M10786 1725 c-3 -8 -1 -15 4 -15 6 0 10 7 10 15 0 8 -2 15 -4 15 -2
0 -6 -7 -10 -15z"/>
<path d="M3655 1594 c-22 -8 -47 -17 -55 -21 -8 -3 -19 -5 -24 -4 -20 5 -68
-11 -59 -20 13 -13 54 -13 86 0 16 6 39 11 52 11 32 0 76 21 72 34 -5 16 -28
16 -72 0z"/>
<path d="M3460 1535 c0 -17 2 -18 24 -9 23 9 20 24 -4 24 -11 0 -20 -7 -20
-15z"/>
<path d="M8275 1350 c-3 -5 -1 -10 4 -10 6 0 11 5 11 10 0 6 -2 10 -4 10 -3 0
-8 -4 -11 -10z"/>
<path d="M8128 1243 c7 -3 16 -2 19 1 4 3 -2 6 -13 5 -11 0 -14 -3 -6 -6z"/>
</g>
</svg>
